<svg width="363" height="108" viewBox="0 0 363 108" fill="none" xmlns="http://www.w3.org/2000/svg">
<path d="M0 108V0H23.1V108H0ZM10.8 66.15V48.45H72.75V66.15H10.8ZM10.8 17.7V0H76.2V17.7H10.8Z" fill="#DDAD2F" fill-opacity="0.1"/>
<path d="M87.8766 108V0H136.177C143.977 0 150.777 1.35 156.577 4.05C162.377 6.65 166.877 10.35 170.077 15.15C173.277 19.95 174.877 25.55 174.877 31.95C174.877 38.25 173.277 43.8 170.077 48.6C166.877 53.3 162.377 57 156.577 59.7C150.777 62.3 143.977 63.6 136.177 63.6H106.177V46.65H135.577C141.077 46.65 145.277 45.4 148.177 42.9C151.177 40.3 152.677 36.7 152.677 32.1C152.677 27.4 151.227 23.85 148.327 21.45C145.427 18.95 141.177 17.7 135.577 17.7H110.977V108H87.8766ZM148.777 108L105.427 51.9H129.877L179.977 108H148.777Z" fill="#DDAD2F" fill-opacity="0.1"/>
<path d="M188.672 108V0H211.772V108H188.672ZM199.472 108V90.3H269.072V108H199.472ZM199.472 61.5V44.1H263.822V61.5H199.472ZM199.472 17.7V0H267.272V17.7H199.472Z" fill="#DDAD2F" fill-opacity="0.1"/>
<path d="M282.568 108V0H305.668V108H282.568ZM293.368 108V90.3H362.968V108H293.368ZM293.368 61.5V44.1H357.718V61.5H293.368ZM293.368 17.7V0H361.168V17.7H293.368Z" fill="#DDAD2F" fill-opacity="0.1"/>
</svg>
