<svg width="20" height="20" viewBox="0 0 20 20" fill="none" xmlns="http://www.w3.org/2000/svg">
<path d="M6.599 9.90057C6.599 8.078 8.07566 6.60012 9.89771 6.60012C11.7198 6.60012 13.1972 8.078 13.1972 9.90057C13.1972 11.7231 11.7198 13.201 9.89771 13.201C8.07566 13.201 6.599 11.7231 6.599 9.90057ZM4.81535 9.90057C4.81535 12.7084 7.09072 14.9844 9.89771 14.9844C12.7047 14.9844 14.9801 12.7084 14.9801 9.90057C14.9801 7.09277 12.7047 4.81675 9.89771 4.81675C7.09072 4.81675 4.81535 7.09277 4.81535 9.90057ZM13.9935 4.61517C13.9934 4.85015 14.063 5.07988 14.1934 5.27531C14.3239 5.47074 14.5093 5.62309 14.7263 5.7131C14.9433 5.80311 15.1821 5.82673 15.4125 5.78098C15.6429 5.73523 15.8546 5.62216 16.0208 5.45607C16.187 5.28999 16.3002 5.07834 16.3461 4.84789C16.392 4.61745 16.3686 4.37856 16.2788 4.16143C16.189 3.9443 16.0368 3.75869 15.8415 3.62807C15.6463 3.49744 15.4167 3.42767 15.1817 3.42758C14.8669 3.42772 14.5644 3.55288 14.3417 3.77555C14.1191 3.99822 13.9938 4.3002 13.9935 4.61517ZM5.89903 17.9594C4.93405 17.9154 4.40955 17.7547 4.06099 17.6188C3.59889 17.4389 3.26917 17.2245 2.92252 16.8783C2.57586 16.532 2.36128 16.2025 2.18217 15.7402C2.04629 15.3917 1.88555 14.8669 1.84169 13.9017C1.7937 12.8581 1.78412 12.5446 1.78412 9.90065C1.78412 7.25672 1.79449 6.9441 1.84169 5.89963C1.88563 4.93437 2.04756 4.41059 2.18217 4.06106C2.36207 3.59882 2.57633 3.26901 2.92252 2.92225C3.2687 2.5755 3.59809 2.36085 4.06099 2.18169C4.40939 2.04577 4.93405 1.88499 5.89903 1.84111C6.94233 1.79311 7.25573 1.78353 9.89771 1.78353C12.5397 1.78353 12.8534 1.7939 13.8976 1.84111C14.8626 1.88507 15.3862 2.04704 15.7356 2.18169C16.1977 2.36085 16.5274 2.57597 16.8741 2.92225C17.2207 3.26854 17.4345 3.59882 17.6144 4.06106C17.7503 4.40956 17.9111 4.93437 17.9549 5.89963C18.0029 6.9441 18.0125 7.25672 18.0125 9.90065C18.0125 12.5446 18.0029 12.8572 17.9549 13.9017C17.911 14.8669 17.7494 15.3916 17.6144 15.7402C17.4345 16.2025 17.2203 16.5323 16.8741 16.8783C16.5279 17.2242 16.1977 17.4389 15.7356 17.6188C15.3872 17.7547 14.8626 17.9155 13.8976 17.9594C12.8543 18.0074 12.5409 18.017 9.89771 18.017C7.25455 18.017 6.94202 18.0074 5.89903 17.9594ZM5.81708 0.0599579C4.76341 0.107956 4.04341 0.275077 3.41463 0.51982C2.76344 0.772561 2.21218 1.11164 1.66131 1.66179C1.11044 2.21195 0.772338 2.76424 0.519669 3.41562C0.274998 4.04498 0.107925 4.76479 0.0599405 5.81876C0.0111646 6.8744 0 7.21189 0 9.90057C0 12.5892 0.0111646 12.9267 0.0599405 13.9824C0.107925 15.0364 0.274998 15.7562 0.519669 16.3855C0.772338 17.0365 1.11052 17.5894 1.66131 18.1394C2.2121 18.6893 2.76344 19.0279 3.41463 19.2813C4.0446 19.5261 4.76341 19.6932 5.81708 19.7412C6.87297 19.7892 7.20981 19.8011 9.89771 19.8011C12.5856 19.8011 12.923 19.79 13.9783 19.7412C15.0321 19.6932 15.7516 19.5261 16.3808 19.2813C17.0316 19.0279 17.5832 18.6895 18.1341 18.1394C18.685 17.5892 19.0224 17.0365 19.2758 16.3855C19.5204 15.7562 19.6883 15.0364 19.7355 13.9824C19.7835 12.9259 19.7946 12.5892 19.7946 9.90057C19.7946 7.21189 19.7835 6.8744 19.7355 5.81876C19.6875 4.76471 19.5204 4.04458 19.2758 3.41562C19.0224 2.76464 18.6841 2.21282 18.1341 1.66179C17.5841 1.11076 17.0316 0.772561 16.3816 0.51982C15.7516 0.275077 15.032 0.107164 13.9791 0.0599579C12.9238 0.0119599 12.5864 0 9.8985 0C7.2106 0 6.87297 0.0111678 5.81708 0.0599579Z" fill="white"/>
<path d="M6.599 9.90057C6.599 8.078 8.07566 6.60012 9.89771 6.60012C11.7198 6.60012 13.1972 8.078 13.1972 9.90057C13.1972 11.7231 11.7198 13.201 9.89771 13.201C8.07566 13.201 6.599 11.7231 6.599 9.90057ZM4.81535 9.90057C4.81535 12.7084 7.09072 14.9844 9.89771 14.9844C12.7047 14.9844 14.9801 12.7084 14.9801 9.90057C14.9801 7.09277 12.7047 4.81675 9.89771 4.81675C7.09072 4.81675 4.81535 7.09277 4.81535 9.90057ZM13.9935 4.61517C13.9934 4.85015 14.063 5.07988 14.1934 5.27531C14.3239 5.47074 14.5093 5.62309 14.7263 5.7131C14.9433 5.80311 15.1821 5.82673 15.4125 5.78098C15.6429 5.73523 15.8546 5.62216 16.0208 5.45607C16.187 5.28999 16.3002 5.07834 16.3461 4.84789C16.392 4.61745 16.3686 4.37856 16.2788 4.16143C16.189 3.9443 16.0368 3.75869 15.8415 3.62807C15.6463 3.49744 15.4167 3.42767 15.1817 3.42758C14.8669 3.42772 14.5644 3.55288 14.3417 3.77555C14.1191 3.99822 13.9938 4.3002 13.9935 4.61517ZM5.89903 17.9594C4.93405 17.9154 4.40955 17.7547 4.06099 17.6188C3.59889 17.4389 3.26917 17.2245 2.92252 16.8783C2.57586 16.532 2.36128 16.2025 2.18217 15.7402C2.04629 15.3917 1.88555 14.8669 1.84169 13.9017C1.7937 12.8581 1.78412 12.5446 1.78412 9.90065C1.78412 7.25672 1.79449 6.9441 1.84169 5.89963C1.88563 4.93437 2.04756 4.41059 2.18217 4.06106C2.36207 3.59882 2.57633 3.26901 2.92252 2.92225C3.2687 2.5755 3.59809 2.36085 4.06099 2.18169C4.40939 2.04577 4.93405 1.88499 5.89903 1.84111C6.94233 1.79311 7.25573 1.78353 9.89771 1.78353C12.5397 1.78353 12.8534 1.7939 13.8976 1.84111C14.8626 1.88507 15.3862 2.04704 15.7356 2.18169C16.1977 2.36085 16.5274 2.57597 16.8741 2.92225C17.2207 3.26854 17.4345 3.59882 17.6144 4.06106C17.7503 4.40956 17.9111 4.93437 17.9549 5.89963C18.0029 6.9441 18.0125 7.25672 18.0125 9.90065C18.0125 12.5446 18.0029 12.8572 17.9549 13.9017C17.911 14.8669 17.7494 15.3916 17.6144 15.7402C17.4345 16.2025 17.2203 16.5323 16.8741 16.8783C16.5279 17.2242 16.1977 17.4389 15.7356 17.6188C15.3872 17.7547 14.8626 17.9155 13.8976 17.9594C12.8543 18.0074 12.5409 18.017 9.89771 18.017C7.25455 18.017 6.94202 18.0074 5.89903 17.9594ZM5.81708 0.0599579C4.76341 0.107956 4.04341 0.275077 3.41463 0.51982C2.76344 0.772561 2.21218 1.11164 1.66131 1.66179C1.11044 2.21195 0.772338 2.76424 0.519669 3.41562C0.274998 4.04498 0.107925 4.76479 0.0599405 5.81876C0.0111646 6.8744 0 7.21189 0 9.90057C0 12.5892 0.0111646 12.9267 0.0599405 13.9824C0.107925 15.0364 0.274998 15.7562 0.519669 16.3855C0.772338 17.0365 1.11052 17.5894 1.66131 18.1394C2.2121 18.6893 2.76344 19.0279 3.41463 19.2813C4.0446 19.5261 4.76341 19.6932 5.81708 19.7412C6.87297 19.7892 7.20981 19.8011 9.89771 19.8011C12.5856 19.8011 12.923 19.79 13.9783 19.7412C15.0321 19.6932 15.7516 19.5261 16.3808 19.2813C17.0316 19.0279 17.5832 18.6895 18.1341 18.1394C18.685 17.5892 19.0224 17.0365 19.2758 16.3855C19.5204 15.7562 19.6883 15.0364 19.7355 13.9824C19.7835 12.9259 19.7946 12.5892 19.7946 9.90057C19.7946 7.21189 19.7835 6.8744 19.7355 5.81876C19.6875 4.76471 19.5204 4.04458 19.2758 3.41562C19.0224 2.76464 18.6841 2.21282 18.1341 1.66179C17.5841 1.11076 17.0316 0.772561 16.3816 0.51982C15.7516 0.275077 15.032 0.107164 13.9791 0.0599579C12.9238 0.0119599 12.5864 0 9.8985 0C7.2106 0 6.87297 0.0111678 5.81708 0.0599579Z" fill="white"/>
</svg>
