<svg width="90" height="90" viewBox="0 0 90 90" fill="none" xmlns="http://www.w3.org/2000/svg">
<circle cx="45" cy="45" r="45" fill="#808C5A" fill-opacity="0.12"/>
<circle cx="45" cy="45" r="30" fill="#DDAD2F"/>
<path d="M33.4116 39.3092C34.5153 37.1114 36.2084 35.2639 38.3017 33.9732C40.3951 32.6824 42.8062 31.9992 45.2655 32C48.8405 32 51.8437 33.3146 54.1399 35.4556L50.3368 39.2601C48.9612 37.9455 47.2128 37.2756 45.2655 37.2756C41.8098 37.2756 38.8848 39.6103 37.8435 42.7449C37.5782 43.5408 37.427 44.3898 37.427 45.2653C37.427 46.1408 37.5782 46.9898 37.8435 47.7857C38.8862 50.9216 41.8098 53.255 45.2655 53.255C47.0496 53.255 48.5685 52.7841 49.7571 51.9882C50.4461 51.5345 51.036 50.9458 51.4911 50.2577C51.9462 49.5696 52.2571 48.7963 52.4048 47.9847H45.2655V42.8537H57.7587C57.9153 43.7212 58.0002 44.6259 58.0002 45.5664C58.0002 49.607 56.5542 53.0083 54.0444 55.3164C51.8504 57.3434 48.8471 58.5306 45.2655 58.5306C43.5232 58.5313 41.798 58.1887 40.1882 57.5223C38.5785 56.8559 37.1159 55.8788 35.8839 54.6468C34.652 53.4149 33.6749 51.9523 33.0085 50.3425C32.3421 48.7328 31.9995 47.0075 32.0002 45.2653C32.0002 43.1243 32.5122 41.1 33.4116 39.3092Z" fill="white"/>
</svg>
