<svg width="90" height="90" viewBox="0 0 90 90" fill="none" xmlns="http://www.w3.org/2000/svg">
<circle cx="45" cy="45" r="45" fill="#808C5A" fill-opacity="0.12"/>
<circle cx="45" cy="45" r="30" fill="#DDAD2F"/>
<path d="M55.8046 49.541C55.8045 51.7248 54.9775 53.8276 53.4899 55.4264C55.2739 53.4664 54.5606 50.2677 52.1526 49.2464C51.0032 48.8397 48.8352 48.113 47.6632 47.7024C47.1349 47.4941 46.6956 47.1085 46.4206 46.6117C45.9126 45.3117 44.8699 42.6544 44.3566 41.3477C44.2299 40.9677 43.9432 40.5143 44.0032 40.097C44.0646 39.2997 44.9686 38.7597 45.7046 39.0917L50.6139 41.609C51.4419 41.9984 52.3539 42.5317 53.0086 43.1717C53.8902 43.9819 54.5939 44.9664 55.0752 46.0628C55.5565 47.1592 55.8049 48.3436 55.8046 49.541ZM53.8846 52.0584C53.5326 50.4664 52.3712 49.733 50.9299 49.3544C48.8939 50.557 44.4592 53.1917 41.6606 54.861C40.1899 55.7677 38.8206 56.661 37.7686 56.517C36.8905 56.5034 36.0439 56.1877 35.3712 55.6231C34.6986 55.0585 34.2409 54.2794 34.0752 53.417C34.0592 53.353 34.0646 53.377 34.0739 53.4304C34.2269 54.6886 34.6582 55.897 35.3366 56.9677C36.1176 58.2012 37.1976 59.2174 38.4764 59.9218C39.7552 60.6262 41.1913 60.9961 42.6512 60.997C45.1952 61.0797 47.3659 59.4597 49.4499 58.2024C49.8392 57.9517 50.5219 57.541 51.2259 57.0944L53.1232 55.081C53.8606 54.3117 54.1419 53.1797 53.8846 52.0584ZM37.8312 56.0184C38.3939 56.0184 38.9272 55.885 39.3952 55.6317C39.8686 55.345 40.6806 54.8597 41.6619 54.2744L41.6632 35.0023C41.6632 33.6824 41.0006 32.517 39.9872 31.8264C39.8806 31.7477 36.1072 29.2917 36.0006 29.2184C35.1939 28.6424 33.9699 29.2784 34.0006 30.281V50.1304L34.5566 53.277C34.6922 54.0462 35.0948 54.7428 35.6936 55.2443C36.2924 55.7457 37.0502 56.0199 37.8312 56.0184Z" fill="white"/>
</svg>
