<svg width="90" height="90" viewBox="0 0 90 90" fill="none" xmlns="http://www.w3.org/2000/svg">
<circle cx="45" cy="45" r="45" fill="#808C5A" fill-opacity="0.12"/>
<circle cx="45" cy="45" r="30" fill="#DDAD2F"/>
<path d="M45 32.6C37.64 32.6 31.6667 38.5733 31.6667 45.9333C31.6667 53.2933 37.64 59.2666 45 59.2666H51.6667V56.6H45C39.2133 56.6 34.3333 51.72 34.3333 45.9333C34.3333 40.1466 39.2133 35.2666 45 35.2666C50.7867 35.2666 55.6667 40.1466 55.6667 45.9333V47.84C55.6667 48.8933 54.72 49.9333 53.6667 49.9333C52.6133 49.9333 51.6667 48.8933 51.6667 47.84V45.9333C51.6667 42.2533 48.68 39.2666 45 39.2666C41.32 39.2666 38.3333 42.2533 38.3333 45.9333C38.3333 49.6133 41.32 52.6 45 52.6C46.84 52.6 48.52 51.8533 49.72 50.64C50.5867 51.8266 52.08 52.6 53.6667 52.6C56.2933 52.6 58.3333 50.4666 58.3333 47.84V45.9333C58.3333 38.5733 52.36 32.6 45 32.6ZM45 49.9333C42.7867 49.9333 41 48.1466 41 45.9333C41 43.72 42.7867 41.9333 45 41.9333C47.2133 41.9333 49 43.72 49 45.9333C49 48.1466 47.2133 49.9333 45 49.9333Z" fill="white"/>
</svg>
