<svg width="90" height="90" viewBox="0 0 90 90" fill="none" xmlns="http://www.w3.org/2000/svg">
<circle cx="45" cy="45" r="45" fill="#808C5A" fill-opacity="0.12"/>
<circle cx="45" cy="45" r="30" fill="#DDAD2F"/>
<path d="M57.0003 55.6667H55.667V35.6667C55.667 35.3131 55.5265 34.9739 55.2765 34.7239C55.0264 34.4738 54.6873 34.3334 54.3337 34.3334C53.98 34.3334 53.6409 34.4738 53.3909 34.7239C53.1408 34.9739 53.0003 35.3131 53.0003 35.6667V55.6667H50.3337V41C50.3337 40.6464 50.1932 40.3073 49.9431 40.0572C49.6931 39.8072 49.3539 39.6667 49.0003 39.6667C48.6467 39.6667 48.3076 39.8072 48.0575 40.0572C47.8075 40.3073 47.667 40.6464 47.667 41V55.6667H45.0003V46.3334C45.0003 45.9797 44.8598 45.6406 44.6098 45.3905C44.3598 45.1405 44.0206 45 43.667 45C43.3134 45 42.9742 45.1405 42.7242 45.3905C42.4741 45.6406 42.3337 45.9797 42.3337 46.3334V55.6667H39.667V51.6667C39.667 51.3131 39.5265 50.9739 39.2765 50.7239C39.0264 50.4738 38.6873 50.3334 38.3337 50.3334C37.98 50.3334 37.6409 50.4738 37.3909 50.7239C37.1408 50.9739 37.0003 51.3131 37.0003 51.6667V55.6667H34.3337V33C34.3337 32.6464 34.1932 32.3073 33.9431 32.0572C33.6931 31.8072 33.3539 31.6667 33.0003 31.6667C32.6467 31.6667 32.3076 31.8072 32.0575 32.0572C31.8075 32.3073 31.667 32.6464 31.667 33V57C31.667 57.3536 31.8075 57.6928 32.0575 57.9428C32.3076 58.1929 32.6467 58.3334 33.0003 58.3334H57.0003C57.3539 58.3334 57.6931 58.1929 57.9431 57.9428C58.1932 57.6928 58.3337 57.3536 58.3337 57C58.3337 56.6464 58.1932 56.3073 57.9431 56.0572C57.6931 55.8072 57.3539 55.6667 57.0003 55.6667Z" fill="white"/>
</svg>
