<svg width="90" height="90" viewBox="0 0 90 90" fill="none" xmlns="http://www.w3.org/2000/svg">
<circle cx="45" cy="45" r="45" fill="#808C5A" fill-opacity="0.12"/>
<circle cx="45" cy="45" r="30" fill="#DDAD2F"/>
<path d="M43.9333 52.3333C41.8 52.2222 40 51.4 38.5333 49.8667C37.0667 48.3333 36.3333 46.4889 36.3333 44.3333C36.3333 42.1111 37.1111 40.2222 38.6667 38.6667C40.2222 37.1111 42.1111 36.3333 44.3333 36.3333C46.4889 36.3333 48.3333 37.0667 49.8667 38.5333C51.4 40 52.2222 41.8 52.3333 43.9333L49.5333 43.1C49.2444 41.9 48.6222 40.9169 47.6667 40.1507C46.7111 39.3844 45.6 39.0009 44.3333 39C42.8667 39 41.6111 39.5222 40.5667 40.5667C39.5222 41.6111 39 42.8667 39 44.3333C39 45.6 39.3836 46.7111 40.1507 47.6667C40.9178 48.6222 41.9009 49.2444 43.1 49.5333L43.9333 52.3333ZM44.3333 57.6667C42.4889 57.6667 40.7556 57.3164 39.1333 56.616C37.5111 55.9156 36.1 54.9658 34.9 53.7667C33.7 52.5667 32.7502 51.1556 32.0507 49.5333C31.3511 47.9111 31.0009 46.1778 31 44.3333C31 42.4889 31.3502 40.7556 32.0507 39.1333C32.7511 37.5111 33.7009 36.1 34.9 34.9C36.1 33.7 37.5111 32.7502 39.1333 32.0507C40.7556 31.3511 42.4889 31.0009 44.3333 31C46.1778 31 47.9111 31.3502 49.5333 32.0507C51.1556 32.7511 52.5667 33.7009 53.7667 34.9C54.9667 36.1 55.9169 37.5111 56.6173 39.1333C57.3178 40.7556 57.6676 42.4889 57.6667 44.3333V44.9333C57.6667 45.1333 57.6444 45.3333 57.6 45.5333L55 44.7333V44.3333C55 41.3556 53.9667 38.8333 51.9 36.7667C49.8333 34.7 47.3111 33.6667 44.3333 33.6667C41.3556 33.6667 38.8333 34.7 36.7667 36.7667C34.7 38.8333 33.6667 41.3556 33.6667 44.3333C33.6667 47.3111 34.7 49.8333 36.7667 51.9C38.8333 53.9667 41.3556 55 44.3333 55H44.7333L45.5333 57.6C45.3333 57.6444 45.1333 57.6667 44.9333 57.6667H44.3333ZM55.2333 57.8667L50 52.6333L49 55.6667C48.8889 55.9778 48.6778 56.128 48.3667 56.1173C48.0556 56.1067 47.8444 55.9453 47.7333 55.6333L44.7 45.5333C44.6111 45.2889 44.6667 45.0667 44.8667 44.8667C45.0667 44.6667 45.2889 44.6111 45.5333 44.7L55.6333 47.7333C55.9444 47.8444 56.1058 48.0556 56.1173 48.3667C56.1289 48.6778 55.9787 48.8889 55.6667 49L52.6333 50L57.8667 55.2333C58 55.3667 58.0667 55.5222 58.0667 55.7C58.0667 55.8778 58 56.0333 57.8667 56.1667L56.1667 57.8667C56.0333 58 55.8778 58.0667 55.7 58.0667C55.5222 58.0667 55.3667 58 55.2333 57.8667Z" fill="white"/>
</svg>
