<svg width="90" height="90" viewBox="0 0 90 90" fill="none" xmlns="http://www.w3.org/2000/svg">
<circle cx="45" cy="45" r="45" fill="#808C5A" fill-opacity="0.12"/>
<circle cx="45" cy="45" r="30" fill="#DDAD2F"/>
<path d="M57.531 52.598C54.864 56.067 56.198 58.999 57.136 60.469C57.531 61 57 61 56.735 61C55.6453 60.802 54.6087 60.3799 53.6907 59.7604C52.7726 59.1409 51.9933 58.3374 51.402 57.401C51.137 57.265 51.001 57.136 50.735 57.265C48.864 57.802 47 58.197 45 58.068C36.197 58.068 29 51.667 29 43.667C29 35.667 36.197 29 45 29C53.803 29 61 35.531 61 43.667C61 47 59.667 50.067 57.531 52.598ZM45 47.666L49.265 50.598C49.3514 50.6496 49.4505 50.6758 49.5511 50.6735C49.6517 50.6712 49.7496 50.6405 49.8335 50.5851C49.9174 50.5296 49.984 50.4515 50.0254 50.3598C50.0669 50.2682 50.0817 50.1667 50.068 50.067L48.469 44.999L52.598 41.802C52.6434 41.7342 52.6727 41.657 52.6837 41.5762C52.6947 41.4954 52.6872 41.4132 52.6616 41.3358C52.6361 41.2583 52.5932 41.1878 52.5363 41.1294C52.4793 41.071 52.4098 41.0264 52.333 40.999H47.136L45.401 35.931C45.3504 35.8747 45.2884 35.8297 45.2193 35.7989C45.1501 35.768 45.0752 35.7521 44.9995 35.7521C44.9238 35.7521 44.8489 35.768 44.7797 35.7989C44.7106 35.8297 44.6486 35.8747 44.598 35.931L42.863 40.999H37.53C37.439 41.032 37.3588 41.0893 37.2979 41.1645C37.237 41.2398 37.1979 41.3302 37.1846 41.4261C37.1713 41.522 37.1845 41.6197 37.2226 41.7087C37.2607 41.7976 37.3224 41.8745 37.401 41.931L41.401 45.135L40.068 50.067C40.0659 50.1496 40.0829 50.2316 40.1178 50.3065C40.1527 50.3814 40.2046 50.4472 40.2692 50.4987C40.3339 50.5501 40.4096 50.5859 40.4904 50.6031C40.5712 50.6204 40.655 50.6186 40.735 50.598L45 47.666Z" fill="white"/>
</svg>
