<svg width="22" height="16" viewBox="0 0 22 16" fill="none" xmlns="http://www.w3.org/2000/svg">
<path d="M20.963 2.34579C20.7178 1.42387 19.9924 0.696567 19.0694 0.447306C17.4005 1.41216e-07 10.7046 0 10.7046 0C10.7046 0 4.0121 1.41216e-07 2.33982 0.447306C1.42024 0.693153 0.694794 1.42045 0.446167 2.34579C0 4.01892 0 7.512 0 7.512C0 7.512 0 11.0051 0.446167 12.6782C0.691388 13.6001 1.41684 14.3274 2.33982 14.5767C4.0121 15.024 10.7046 15.024 10.7046 15.024C10.7046 15.024 17.4005 15.024 19.0694 14.5767C19.989 14.3308 20.7144 13.6035 20.963 12.6782C21.4092 11.0051 21.4092 7.512 21.4092 7.512C21.4092 7.512 21.4092 4.01892 20.963 2.34579Z" fill="white"/>
<path d="M8.56572 10.7319L14.1275 7.512L8.56572 4.29208V10.7319Z" fill="black"/>
</svg>
